<svg id="Layer_1" data-name="Layer 1" xmlns="http://www.w3.org/2000/svg" viewBox="0 0 24 13.34">
  <title>wolf</title>
  <path d="M20.44,10.8l2.32-.12.17,0,.05-.16a1.05,1.05,0,0,1,.54-.57,1,1,0,0,0,.41-1.22l0-.12-.13,0S22.74,8.27,22,8c-.27-.62-.6-.69-.74-.68l-.47-.08a6,6,0,0,0-2-1.62l-.53-.3.29,1a3,3,0,0,0-1-.27h-1l.91.47a.67.67,0,0,1,.4.63l-4,.94.9.13c-.8.07-2,.13-3.56.16H10c-3.46,0-5.36,0-6,2.45a2.68,2.68,0,0,1-2.9,2,1.3,1.3,0,0,0-1,.32A.59.59,0,0,0,0,13.7c.25.87,2.74.91,3.55.72a3.92,3.92,0,0,0,1.57-.91,3.77,3.77,0,0,1-1.93,1.4l-.14,0-.69,3.7h2.4l0-.22a.8.8,0,0,0-.19-.56,1.22,1.22,0,0,0-.7-.37c.17-.37.48-1,.71-1.43a7,7,0,0,0,2.91-1.56.8.8,0,0,1-.25.55c-.42.4-.82.87-.65,1.3.09.22,1,1.85,1.23,2.17l.07.12H10.1l0-.2a.82.82,0,0,0-.2-.65,1.53,1.53,0,0,0-1.2-.41h0a6.38,6.38,0,0,1-.39-1.12A9.67,9.67,0,0,0,11,14.07l.13,0a8.58,8.58,0,0,0,1.82.26c0,.45,0,1.45-.06,1.81a7.66,7.66,0,0,0,.72,2.33l.06.15h2.58l0-.28a.9.9,0,0,0-.4-.65,1.69,1.69,0,0,0-1.16-.14l-.31-.8.74-2.29h.23c.06.39.47.84,1.23,1.38a4.92,4.92,0,0,1,1.78,2.6l0,.19h2.69L21,18.34a1.11,1.11,0,0,0-.56-.7,1.66,1.66,0,0,0-1.05-.1L17.8,14.6v-.25A5.41,5.41,0,0,0,20.44,10.8ZM19.08,6.39a7.37,7.37,0,0,1,.91.68c-.19-.11-.49-.28-.84-.45ZM8,16l-.16.09,0,.18a6.78,6.78,0,0,0,.56,1.56l.07.13h.15a1.29,1.29,0,0,1,1,.22l0,0H8.25c-.53-.89-1.09-1.85-1.14-2s0-.22.53-.77A1.41,1.41,0,0,0,8,14.07L8,14a17.38,17.38,0,0,1,2.45,0A11.36,11.36,0,0,1,8,16Zm5.88.84.52,1.37.22-.06a1.49,1.49,0,0,1,1,0l0,0H14a7.06,7.06,0,0,1-.62-1.92c0-.38.06-1.36.06-1.84l1.13.06Zm5.2,1.15.1.18.2-.06a1.33,1.33,0,0,1,.86,0l.13.09H18.8a5.32,5.32,0,0,0-1.93-2.7c-1-.67-1-1-1-1.07l.38-.38h-.58a24.19,24.19,0,0,1-4.29-.37,12.54,12.54,0,0,0-3.44-.13H7.79l-.07.08a6.36,6.36,0,0,1-3.32,2l-.12,0-.05.1c-.08.16-.8,1.57-.91,1.87l-.11.3.32,0a1,1,0,0,1,.66.22H3l.53-2.84a4,4,0,0,0,2.16-1.75l0,0v-.05a4.44,4.44,0,0,1,0-.52h0a6.53,6.53,0,0,1,.74-2.72l-.21-.13L6,10a6.74,6.74,0,0,0-.8,2.78A4.65,4.65,0,0,1,3.46,14c-1,.23-2.87-.05-3-.38a.14.14,0,0,1,0-.11A.85.85,0,0,1,1,13.34,3.21,3.21,0,0,0,4.44,11C5,9,6.59,8.95,10,8.92h1.13a23.73,23.73,0,0,0,5.37-.41l1-.33L16.47,8l1.78-.41,0-.14a1.19,1.19,0,0,0,0-.69,12.78,12.78,0,0,1,1.66.84l0,0,1.28.21h0s.17.1.32.48l0,.11.11,0c.62.22,1.45.46,1.78.56,0,.15,0,.4-.16.49a1.51,1.51,0,0,0-.74.71L20,10.35l0,.2A5,5,0,0,1,17.44,14l-.14.07v.68Z" transform="translate(0 -5.33)"/>
</svg>
